<svg version="1.1" id="Layer_1" xmlns="http://www.w3.org/2000/svg" xmlns:xlink="http://www.w3.org/1999/xlink" x="0px" y="0px"
	 width="100%" viewBox="0 0 316 221" enable-background="new 0 0 316 221" xml:space="preserve">
<path fill="#FFFFFF" opacity="1.000000" stroke="none" 
	d="
M221.000000,222.000000 
	C148.666672,222.000000 76.833298,221.968826 5.000197,222.096375 
	C1.575720,222.102463 0.897425,221.424469 0.903596,217.999863 
	C1.031541,147.000092 1.031543,75.999992 0.903607,5.000226 
	C0.897436,1.575781 1.575881,0.900586 5.000056,0.904502 
	C107.666580,1.021918 210.333282,1.021912 312.999786,0.904522 
	C316.423676,0.900607 317.102570,1.575337 317.096405,5.000083 
	C316.968445,75.999847 316.968506,146.999954 317.096405,217.999710 
	C317.102570,221.423996 316.427155,222.119034 312.999573,222.099762 
	C282.500488,221.928345 252.000046,222.000000 221.000000,222.000000 
z"/>
<path fill="#2CBBE4" opacity="1.000000" stroke="none" 
	d="
M101.665695,77.801071 
	C112.527115,80.780952 121.428864,85.906601 126.588524,95.903824 
	C133.055801,108.434677 132.245636,120.821060 123.795197,132.023560 
	C115.359268,143.206818 103.634735,147.751541 89.870224,144.734116 
	C76.175316,141.731934 67.585983,132.852020 64.041664,119.235481 
	C63.582676,117.472115 63.369720,115.644714 62.950516,113.445496 
	C60.396252,107.385185 62.724842,102.165230 65.016998,97.349075 
	C71.170296,84.420082 81.710869,77.567749 96.035805,76.684471 
	C97.835693,76.573486 99.704979,76.479019 101.665695,77.801071 
z"/>
<path fill="#CFF6FF" opacity="1.000000" stroke="none" 
	d="
M101.963081,77.717964 
	C89.231682,77.322517 78.347427,81.043083 70.201775,91.320290 
	C65.356461,97.433525 63.356899,104.525627 62.959595,112.620865 
	C57.262234,110.415031 55.796848,105.091537 54.495495,99.817200 
	C51.779755,88.810417 58.022522,75.639893 68.238342,70.397293 
	C79.261604,64.740326 93.056953,66.793327 100.711212,75.266121 
	C101.244286,75.856201 101.541756,76.659134 101.963081,77.717964 
z"/>
<path fill="#D1F6FF" opacity="1.000000" stroke="none" 
	d="
M83.293381,42.769375 
	C74.599205,32.203999 78.163261,19.670523 90.290558,16.960169 
	C95.664650,15.759102 103.613235,19.048182 106.276810,23.575186 
	C109.997864,29.899471 109.542183,36.146172 104.969437,41.496822 
	C100.676659,46.519890 94.464684,48.116169 88.369080,45.628098 
	C86.692146,44.943611 85.160927,43.902119 83.293381,42.769375 
z"/>
<path fill="#2DBBE4" opacity="1.000000" stroke="none" 
	d="
M154.415115,72.937958 
	C158.497986,73.675095 162.321671,74.140938 165.900467,75.338570 
	C175.575104,78.576134 181.009918,88.609482 178.679153,98.360245 
	C176.343735,108.130402 166.809143,114.676071 156.952515,113.275986 
	C146.870544,111.843895 139.740280,103.381706 139.995621,93.151573 
	C140.278519,81.817436 144.185150,76.213829 154.415115,72.937958 
z"/>
<path fill="#2EBBE4" opacity="1.000000" stroke="none" 
	d="
M114.137001,70.065292 
	C105.703117,68.710434 100.940437,63.580753 101.118317,56.494835 
	C101.288025,49.734528 106.340935,44.152561 113.112350,43.244987 
	C119.364349,42.407032 125.751808,46.726215 127.568817,53.020405 
	C130.057510,61.641365 124.191978,69.328171 114.137001,70.065292 
z"/>
<path fill="#FBFEFF" opacity="1.000000" stroke="none" 
	d="
M106.748138,85.244553 
	C118.705772,88.631584 126.518951,100.340988 125.989616,113.411331 
	C125.487282,125.815132 116.125572,137.176270 104.083000,139.996658 
	C88.355125,143.680161 74.183823,135.496201 69.044632,119.386009 
	C70.440620,117.829605 71.885567,118.589012 73.313225,118.890465 
	C89.053558,122.214012 100.936531,116.645035 106.163216,102.155800 
	C106.389671,101.528046 106.762276,100.971222 107.427689,100.178352 
	C113.121780,100.765404 113.068893,105.417885 114.112221,109.252441 
	C114.703590,111.425934 113.620712,113.898476 115.380692,116.316650 
	C117.637688,113.046478 116.703392,109.843506 115.976204,106.753799 
	C114.828217,101.876244 111.501518,98.307785 108.154434,94.342590 
	C107.359642,91.214058 105.994171,88.555832 106.748138,85.244553 
z"/>
<path fill="#CFF6FF" opacity="1.000000" stroke="none" 
	d="
M108.095139,99.670967 
	C103.000481,117.930565 88.133224,125.368568 69.440422,119.058044 
	C63.116249,99.212456 81.638268,79.159241 102.051743,83.308922 
	C103.505379,83.604408 104.925125,84.066605 106.670464,84.686905 
	C107.634033,87.730499 108.287773,90.538460 108.926819,93.747314 
	C106.266441,94.907814 104.071976,92.140800 100.961159,93.135269 
	C102.383537,96.643196 107.048355,96.045914 108.095139,99.670967 
z"/>
<path fill="#CDF5FE" opacity="1.000000" stroke="none" 
	d="
M146.992935,101.275192 
	C143.232101,94.010063 144.593277,86.821304 150.205109,82.229706 
	C155.902267,77.568298 163.285675,77.893517 169.912231,83.395660 
	C173.110123,92.199158 170.092102,98.714516 161.186890,102.083755 
	C155.337769,101.109756 155.337769,101.109756 150.466522,90.614677 
	C148.116013,93.992493 150.971542,97.090004 150.364868,100.494766 
	C149.412399,101.739464 148.440750,101.877258 146.992935,101.275192 
z"/>
<path fill="#F4FCFE" opacity="1.000000" stroke="none" 
	d="
M146.775940,101.405312 
	C147.583862,100.933342 148.532150,100.785408 149.733917,100.384064 
	C152.138123,99.431206 153.077332,101.445000 154.523132,102.246696 
	C156.476639,103.329941 158.113708,103.734978 159.713135,101.281616 
	C166.184387,99.746246 169.760300,95.703003 169.999817,89.577133 
	C170.064056,87.934677 170.027557,86.288284 170.051575,84.172028 
	C176.087433,87.899200 176.202072,99.308746 169.362961,105.194862 
	C162.338486,111.240517 153.049911,109.851105 146.775940,101.405312 
z"/>
<path fill="#FAFDFE" opacity="1.000000" stroke="none" 
	d="
M122.985367,59.417870 
	C120.924210,64.215080 117.522026,66.014999 112.815788,65.175453 
	C108.926491,64.481651 106.664085,61.963299 105.999092,58.170593 
	C105.370186,54.583725 106.615349,51.581154 109.658173,49.497604 
	C112.683403,47.426098 115.932503,47.289089 119.078857,49.108494 
	C122.912094,51.325081 123.792557,54.883789 122.985367,59.417870 
z"/>
<path fill="#2DBBE4" opacity="1.000000" stroke="none" 
	d="
M108.322861,100.135559 
	C106.495110,97.883598 104.154083,97.094971 101.899406,96.171814 
	C100.332962,95.530434 98.617722,94.828362 99.575874,92.699005 
	C100.483002,90.683029 102.229881,91.225151 103.798851,91.880951 
	C105.299812,92.508316 106.762375,93.227516 108.576965,94.027283 
	C115.122002,99.321075 118.687294,105.704689 117.939293,114.026573 
	C117.762360,115.995140 117.679604,118.609016 115.142166,118.536667 
	C112.160667,118.451660 113.057816,115.755699 113.214516,113.895599 
	C113.654083,108.677803 112.442535,104.049599 108.322861,100.135559 
z"/>
<path fill="#2BBAE4" opacity="1.000000" stroke="none" 
	d="
M159.567688,100.984467 
	C161.007996,104.940010 159.372177,105.904320 155.926086,104.537857 
	C153.803162,103.696075 152.003799,102.285667 150.269409,100.307426 
	C149.179276,97.466972 147.812393,94.916695 148.177063,92.006432 
	C148.387695,90.325424 148.813904,88.416458 150.845459,88.403511 
	C153.159317,88.388771 153.059082,90.378220 152.970306,92.068069 
	C152.728745,96.665680 154.842514,99.596817 159.567688,100.984467 
z"/>
</svg>